<svg xmlns="http://www.w3.org/2000/svg" width="175" height="175" viewBox="0 0 175 175"><path d="M33.125 65.967v31.662a15.851 15.851 0 0 0 0-31.662zm36.532 0v31.662a15.851 15.851 0 0 0 .001-31.662zM87.847 2.8a84.346 84.346 0 1 0 0 168.692 85.469 85.469 0 0 0 9.043-.489l-23.165-64.874a24.851 24.851 0 0 1-4.067.447v10.738h-8.969V56.981h8.161a24.793 24.793 0 0 1 13.2 45.795l23.817 66.769A84.344 84.344 0 0 0 87.847 2.8zM50.6 117.314h-9.5l-3.9-11.185a24.844 24.844 0 0 1-4.066.447v10.738h-8.978V56.981h8.161a24.793 24.793 0 0 1 13.2 45.795zm77.5 1.015a31.181 31.181 0 1 1 30-39.568h-9.446a22.214 22.214 0 1 0 0 16.772h9.446a31.217 31.217 0 0 1-30.007 22.796z" data-name="RRC copy"/></svg>