<svg xmlns="http://www.w3.org/2000/svg" width="280" height="92"><path fill="#FFF" fill-rule="evenodd" d="M249.304 55.371c1.833 3.421 4.792 6.953 11.228 6.953 5.73 0 9.163-3.121 11.216-6.315l7.914 5.277c-3.548 4.757-9.492 10.067-19.178 10.067-11.606 0-22.469-8.57-22.469-23.02 0-13.656 9.746-22.91 21.354-22.91l.001.001c9.154 0 16.071 6.117 19.037 13.443l1.593 3.74-30.696 12.764zm10.465-21.125c-6.628 0-12.912 6.839-12.029 13.486l20.5-8.586c-1.279-2.672-4.289-4.9-8.471-4.9zM223.947 2.371h9.402v67.621h-9.402V2.371zm-27.966 89.628c-11.185 0-17.469-6.897-20.59-13.511l8.798-3.685c1.219 2.956 4.727 8.167 11.719 8.167 7.239 0 12.035-4.74 12.035-12.655v-4.524c-2.562 2.979-6.031 5.575-12.556 5.575-10.552 0-21.766-9.157-21.766-22.966 0-12.122 9.673-22.923 21.978-22.923v.001c5.356 0 9.392 2.078 12.344 5.265v-4.454h9.598V68.08c0 16.197-9.325 23.919-21.56 23.919zm.509-57.529c-6.458 0-12.798 5.256-12.798 14.064 0 8.477 6.104 13.814 12.665 13.814 6.179 0 12.361-4.938 12.361-13.899 0-8.816-6.195-13.979-12.228-13.979zm-49.827 36.865c-13.853 0-23.172-10.698-23.172-23.129 0-12.25 9.608-22.753 23.014-22.753 11.021 0 22.972 7.826 22.972 23.02 0 13.257-10.274 22.862-22.814 22.862zm-.024-36.871c-7.409 0-13.101 5.935-13.101 13.882 0 8.12 5.764 13.985 13.07 13.985 6.65 0 12.871-5.494 12.871-13.918 0-8.607-6.248-13.949-12.84-13.949zM96.893 71.335c-13.852 0-23.171-10.698-23.171-23.129 0-12.25 9.608-22.753 23.014-22.753 11.021 0 22.971 7.826 22.971 23.02 0 13.257-10.273 22.862-22.814 22.862zm-.024-36.871c-7.408 0-13.1 5.935-13.1 13.882 0 8.12 5.764 13.985 13.07 13.985 6.65 0 12.87-5.494 12.87-13.918 0-8.607-6.247-13.949-12.84-13.949zM36.406 71.377C14.725 71.377 0 53.714 0 35.599 0 17.113 15.654-.002 35.89-.001c15.891 0 24.604 9.72 24.604 9.72l-6.788 7.045s-6.477-7.022-17.469-7.022c-14.247 0-25.61 11.325-25.61 26.031 0 15.096 11.92 25.866 25.58 25.866 10.676 0 21.987-5.81 23.132-19.434H35.885v-9.716H68.84l-.001-.002s.592 2.36.592 6.444c0 19.356-13.958 32.446-33.025 32.446z"/></svg>